 <svg width="124" height="124" viewBox="0 0 124 124" fill="none" xmlns="http://www.w3.org/2000/svg">
                <g filter="url(#filter0_d_40432_2486)">
                  <circle cx="62" cy="62" r="44" fill="#FDFCFC" />
                </g>
                <path
                  d="M56.0026 59.1089C55.7085 59.565 55.2251 59.8731 54.6828 59.8947C53.2668 59.951 51.8785 59.7493 50.518 59.2896C48.8847 58.7377 47.4331 57.8951 46.1633 56.7617C44.9327 55.6137 44.0256 54.256 43.4419 52.6886C42.5227 50.22 42.3248 47.9512 42.8483 45.8823C43.411 43.7988 44.4404 42.01 45.9365 40.5159C47.4717 39.0072 49.2582 37.8735 51.2958 37.1147C52.197 36.7791 53.1862 36.5 54.2634 36.2774C54.5656 36.2149 54.8671 36.1598 55.1677 36.1119C56.4641 35.9057 57.6032 36.8755 57.7853 38.1755C57.9856 39.6055 56.9623 40.9111 55.5528 41.2251C55.5377 41.2285 55.5225 41.2319 55.5073 41.2353C54.6014 41.4388 53.7958 41.6718 53.0905 41.9345C51.6799 42.4598 50.5208 43.1814 49.6133 44.0993C48.7058 45.0173 48.1064 46.0436 47.8151 47.1784C47.5091 48.2739 47.575 49.4094 48.0128 50.585C48.4067 51.643 49.0581 52.4935 49.9669 53.1367C50.9003 53.7261 51.9539 54.1592 53.1278 54.436C54.2871 54.6736 55.4149 54.7667 56.5113 54.7154C57.3475 54.6454 58.1677 55.7508 57.713 56.456L56.0026 59.1089Z"
                  fill="url(#paint0_linear_40432_2486)" />
                <mask id="path-3-inside-1_40432_2486" fill="white">
                  <path
                    d="M83.1698 75.3807C84.8039 75.8492 85.7704 77.569 85.0486 79.1081C83.6036 82.1894 81.3618 84.8522 78.5314 86.8066C74.8516 89.3474 70.4047 90.5338 65.9484 90.1635C61.492 89.7932 57.3019 87.8891 54.092 84.7758C50.8821 81.6625 48.851 77.5325 48.3447 73.0895C47.8385 68.6465 48.8885 64.1654 51.3158 60.4098C53.7431 56.6542 57.3975 53.8564 61.6564 52.4931C65.9152 51.1299 70.515 51.2855 74.672 52.9334C77.8695 54.201 80.6529 56.2913 82.754 58.9686C83.8035 60.3059 83.2486 62.1989 81.7618 63.0231C80.275 63.8472 78.4239 63.2767 77.2779 62.0212C75.9384 60.5538 74.275 59.3982 72.4033 58.6562C69.5703 57.5331 66.4355 57.4271 63.5331 58.3561C60.6307 59.2852 58.1402 61.1919 56.486 63.7514C54.8318 66.3108 54.1162 69.3647 54.4612 72.3926C54.8062 75.4205 56.1904 78.2351 58.378 80.3569C60.5655 82.4786 63.4211 83.7762 66.4581 84.0286C69.4952 84.2809 72.5257 83.4724 75.0335 81.7408C76.6903 80.5968 78.0511 79.0967 79.0261 77.3656C79.8604 75.8844 81.5357 74.9121 83.1698 75.3807Z" />
                </mask>
                <path
                  d="M83.1698 75.3807C84.8039 75.8492 85.7704 77.569 85.0486 79.1081C83.6036 82.1894 81.3618 84.8522 78.5314 86.8066C74.8516 89.3474 70.4047 90.5338 65.9484 90.1635C61.492 89.7932 57.3019 87.8891 54.092 84.7758C50.8821 81.6625 48.851 77.5325 48.3447 73.0895C47.8385 68.6465 48.8885 64.1654 51.3158 60.4098C53.7431 56.6542 57.3975 53.8564 61.6564 52.4931C65.9152 51.1299 70.515 51.2855 74.672 52.9334C77.8695 54.201 80.6529 56.2913 82.754 58.9686C83.8035 60.3059 83.2486 62.1989 81.7618 63.0231C80.275 63.8472 78.4239 63.2767 77.2779 62.0212C75.9384 60.5538 74.275 59.3982 72.4033 58.6562C69.5703 57.5331 66.4355 57.4271 63.5331 58.3561C60.6307 59.2852 58.1402 61.1919 56.486 63.7514C54.8318 66.3108 54.1162 69.3647 54.4612 72.3926C54.8062 75.4205 56.1904 78.2351 58.378 80.3569C60.5655 82.4786 63.4211 83.7762 66.4581 84.0286C69.4952 84.2809 72.5257 83.4724 75.0335 81.7408C76.6903 80.5968 78.0511 79.0967 79.0261 77.3656C79.8604 75.8844 81.5357 74.9121 83.1698 75.3807Z"
                  stroke="url(#paint1_linear_40432_2486)" stroke-width="6.27176"
                  mask="url(#path-3-inside-1_40432_2486)" />
                <circle cx="83.5053" cy="69.1156" r="2.10959" transform="rotate(16 83.5053 69.1156)"
                  stroke="url(#paint2_linear_40432_2486)" stroke-width="1.25435" />
                <circle cx="65.0639" cy="37.8499" r="2.10959" transform="rotate(16 65.0639 37.8499)"
                  stroke="url(#paint3_linear_40432_2486)" stroke-width="1.25435" />
                <defs>
                  <filter id="filter0_d_40432_2486" x="0.309942" y="0.309942" width="123.38" height="123.38"
                    filterUnits="userSpaceOnUse" color-interpolation-filters="sRGB">
                    <feFlood flood-opacity="0" result="BackgroundImageFix" />
                    <feColorMatrix in="SourceAlpha" type="matrix" values="0 0 0 0 0 0 0 0 0 0 0 0 0 0 0 0 0 0 127 0"
                      result="hardAlpha" />
                    <feOffset />
                    <feGaussianBlur stdDeviation="8.84503" />
                    <feComposite in2="hardAlpha" operator="out" />
                    <feColorMatrix type="matrix" values="0 0 0 0 0 0 0 0 0 0 0 0 0 0 0 0 0 0 0.16 0" />
                    <feBlend mode="normal" in2="BackgroundImageFix" result="effect1_dropShadow_40432_2486" />
                    <feBlend mode="normal" in="SourceGraphic" in2="effect1_dropShadow_40432_2486" result="shape" />
                  </filter>
                  <linearGradient id="paint0_linear_40432_2486" x1="40.8989" y1="30.5859" x2="116.52" y2="57.919"
                    gradientUnits="userSpaceOnUse">
                    <stop stop-color="#A854E9" />
                    <stop offset="1" stop-color="#4F91FC" />
                  </linearGradient>
                  <linearGradient id="paint1_linear_40432_2486" x1="62.0396" y1="35.9916" x2="149.135" y2="169.471"
                    gradientUnits="userSpaceOnUse">
                    <stop stop-color="#A854E9" />
                    <stop offset="1" stop-color="#4F91FC" />
                  </linearGradient>
                  <linearGradient id="paint2_linear_40432_2486" x1="81.393" y1="64.5791" x2="98.4569" y2="79.3474"
                    gradientUnits="userSpaceOnUse">
                    <stop stop-color="#A854E9" />
                    <stop offset="1" stop-color="#4F91FC" />
                  </linearGradient>
                  <linearGradient id="paint3_linear_40432_2486" x1="62.9516" y1="33.3135" x2="80.0154" y2="48.0818"
                    gradientUnits="userSpaceOnUse">
                    <stop stop-color="#A854E9" />
                    <stop offset="1" stop-color="#4F91FC" />
                  </linearGradient>
                </defs>
              </svg>